<svg width="812" height="1024" viewBox="0 0 812 1024" fill="none" xmlns="http://www.w3.org/2000/svg">
<g id="backgroung-login">
<path id="Background" opacity="0.5" d="M655.63 795.198C1134.35 237.467 397.935 -179.703 -1 -1.20279V1035.01C-1 1040.06 176.908 1352.93 655.63 795.198Z" fill="#BBDEF0"/>
<g id="webi">
<path id="REG" opacity="0.7" d="M252.062 251L231.062 212H227.912V251H198.512V145.25H244.862C253.362 145.25 260.562 146.75 266.462 149.75C272.362 152.65 276.812 156.7 279.812 161.9C282.812 167 284.312 172.75 284.312 179.15C284.312 186.35 282.312 192.7 278.312 198.2C274.412 203.6 268.662 207.45 261.062 209.75L284.912 251H252.062ZM227.912 191.9H242.462C246.462 191.9 249.462 190.95 251.462 189.05C253.462 187.15 254.462 184.4 254.462 180.8C254.462 177.4 253.412 174.75 251.312 172.85C249.312 170.85 246.362 169.85 242.462 169.85H227.912V191.9ZM327.082 168.8V186.05H360.832V208.4H327.082V227.45H365.332V251H297.682V145.25H365.332V168.8H327.082ZM447.359 180.05C445.659 177.25 443.309 175.1 440.309 173.6C437.409 172.1 433.959 171.35 429.959 171.35C422.559 171.35 416.709 173.75 412.409 178.55C408.209 183.35 406.109 189.8 406.109 197.9C406.109 207 408.359 213.95 412.859 218.75C417.459 223.45 424.109 225.8 432.809 225.8C443.109 225.8 450.459 221.15 454.859 211.85H425.309V190.7H480.209V219.2C477.909 224.8 474.509 230.05 470.009 234.95C465.609 239.85 460.009 243.9 453.209 247.1C446.409 250.2 438.659 251.75 429.959 251.75C419.359 251.75 409.959 249.5 401.759 245C393.659 240.4 387.359 234.05 382.859 225.95C378.459 217.75 376.259 208.4 376.259 197.9C376.259 187.5 378.459 178.25 382.859 170.15C387.359 161.95 393.659 155.6 401.759 151.1C409.859 146.5 419.209 144.2 429.809 144.2C443.109 144.2 454.109 147.4 462.809 153.8C471.509 160.2 476.909 168.95 479.009 180.05H447.359Z" fill="#093A3E"/>
<path id="WEBI" d="M285.9 78.5L268.6 149H244.5L234.8 105.8L224.9 149H200.8L183.7 78.5H204.9L213.1 126.7L224.2 78.5H245.7L256.5 126.3L264.7 78.5H285.9ZM313.817 94.2V105.7H336.317V120.6H313.817V133.3H339.317V149H294.217V78.5H339.317V94.2H313.817ZM394.002 112.8C398.136 113.733 401.402 115.8 403.802 119C406.269 122.133 407.502 125.733 407.502 129.8C407.502 135.8 405.436 140.5 401.302 143.9C397.169 147.3 391.369 149 383.902 149H349.002V78.5H382.802C390.002 78.5 395.636 80.1 399.702 83.3C403.836 86.5 405.902 91 405.902 96.8C405.902 100.933 404.802 104.4 402.602 107.2C400.469 109.933 397.602 111.8 394.002 112.8ZM368.602 106.5H378.502C383.436 106.5 385.902 104.467 385.902 100.4C385.902 96.2 383.436 94.1 378.502 94.1H368.602V106.5ZM380.002 133.2C384.936 133.2 387.402 131.133 387.402 127C387.402 124.867 386.736 123.233 385.402 122.1C384.136 120.967 382.302 120.4 379.902 120.4H368.602V133.2H380.002ZM435.692 78.5V149H416.092V78.5H435.692Z" fill="#093A3E"/>
</g>
</g>
</svg>
