<svg width="812" height="1024" viewBox="0 0 812 1024" fill="none" xmlns="http://www.w3.org/2000/svg">
<g id="backgroung-signup">
<path id="Background" opacity="0.5" d="M655.63 795.198C1134.35 237.467 397.935 -179.703 -1 -1.20279V1035.01C-1 1040.06 176.908 1352.93 655.63 795.198Z" fill="#BBDEF0"/>
<g id="Computer">
<path id="Vector" d="M638.233 142.402H437.251V138.261H346.118V142.402H144.307C142.522 142.402 140.754 142.753 139.104 143.436C137.455 144.119 135.956 145.12 134.694 146.382C133.432 147.644 132.43 149.142 131.747 150.79C131.064 152.439 130.712 154.206 130.712 155.99V431.064C130.712 434.668 132.144 438.125 134.694 440.673C137.243 443.221 140.701 444.653 144.307 444.653H638.233C641.838 444.653 645.296 443.221 647.846 440.673C650.395 438.125 651.828 434.668 651.828 431.064V155.99C651.828 154.206 651.476 152.439 650.793 150.79C650.11 149.142 649.108 147.644 647.846 146.382C646.584 145.12 645.085 144.119 643.435 143.436C641.786 142.753 640.018 142.402 638.233 142.402Z" fill="#3F3D56"/>
<path id="Vector_2" d="M633.601 166.416H148.939V439.684H633.601V166.416Z" fill="#00A6A6"/>
<path id="Vector_3" d="M390.856 158.964C393.601 158.964 395.827 156.739 395.827 153.995C395.827 151.251 393.601 149.027 390.856 149.027C388.11 149.027 385.885 151.251 385.885 153.995C385.885 156.739 388.11 158.964 390.856 158.964Z" fill="#00A6A6"/>
<path id="Vector_4" opacity="0.1" d="M494.996 439.685H148.939V166.417L494.996 439.685Z" fill="black"/>
<path id="Vector_5" d="M224.774 419.236C250.503 419.236 271.361 398.388 271.361 372.671C271.361 346.954 250.503 326.106 224.774 326.106C199.044 326.106 178.187 346.954 178.187 372.671C178.187 398.388 199.044 419.236 224.774 419.236Z" fill="#F2F2F2"/>
<path id="Vector_6" d="M549.213 313.792H503.941V323.247H549.213V313.792Z" fill="#3F3D56"/>
<path id="Vector_7" d="M603.946 240.175H449.208V244.227H603.946V240.175Z" fill="#3F3D56"/>
<path id="Vector_8" d="M603.946 253.007H449.208V257.059H603.946V253.007Z" fill="#3F3D56"/>
<path id="Vector_9" d="M603.946 265.839H449.208V269.892H603.946V265.839Z" fill="#3F3D56"/>
<path id="Vector_10" d="M603.946 278.672H449.208V282.724H603.946V278.672Z" fill="#3F3D56"/>
<path id="Vector_11" d="M603.946 291.504H449.208V295.557H603.946V291.504Z" fill="#3F3D56"/>
<path id="Vector_12" d="M603.946 171.96H585.026V190.871H603.946V171.96Z" fill="#F2F2F2"/>
<path id="Vector_13" d="M612.73 199.651H589.756V176.688H612.73V199.651ZM590.755 198.653H611.731V177.687H590.755V198.653Z" fill="#3F3D56"/>
<path id="Vector_14" d="M665.436 434.716H618.136V431.31C618.136 431.221 618.119 431.133 618.085 431.051C618.051 430.969 618.001 430.895 617.938 430.832C617.875 430.769 617.801 430.72 617.719 430.686C617.637 430.652 617.549 430.634 617.46 430.634H601.243C601.155 430.634 601.067 430.652 600.985 430.686C600.903 430.72 600.828 430.769 600.765 430.832C600.703 430.895 600.653 430.969 600.619 431.051C600.585 431.133 600.568 431.221 600.568 431.31V434.716H590.432V431.31C590.432 431.221 590.414 431.133 590.38 431.051C590.346 430.969 590.297 430.895 590.234 430.832C590.171 430.769 590.097 430.72 590.015 430.686C589.933 430.652 589.845 430.634 589.756 430.634H573.539C573.45 430.634 573.362 430.652 573.28 430.686C573.198 430.72 573.124 430.769 573.061 430.832C572.998 430.895 572.949 430.969 572.915 431.051C572.881 431.133 572.863 431.221 572.863 431.31V434.716H562.728V431.31C562.728 431.221 562.71 431.133 562.676 431.051C562.642 430.969 562.592 430.895 562.53 430.832C562.467 430.769 562.392 430.72 562.311 430.686C562.229 430.652 562.141 430.634 562.052 430.634H545.835C545.746 430.634 545.658 430.652 545.576 430.686C545.494 430.72 545.42 430.769 545.357 430.832C545.294 430.895 545.245 430.969 545.211 431.051C545.177 431.133 545.159 431.221 545.159 431.31V434.716H535.023V431.31C535.023 431.221 535.006 431.133 534.972 431.051C534.938 430.969 534.888 430.895 534.825 430.832C534.763 430.769 534.688 430.72 534.606 430.686C534.524 430.652 534.436 430.634 534.348 430.634H518.131C518.042 430.634 517.954 430.652 517.872 430.686C517.79 430.72 517.716 430.769 517.653 430.832C517.59 430.895 517.54 430.969 517.506 431.051C517.472 431.133 517.455 431.221 517.455 431.31V434.716H507.319V431.31C507.319 431.221 507.302 431.133 507.268 431.051C507.234 430.969 507.184 430.895 507.121 430.832C507.059 430.769 506.984 430.72 506.902 430.686C506.82 430.652 506.732 430.634 506.643 430.634H490.426C490.338 430.634 490.25 430.652 490.168 430.686C490.086 430.72 490.011 430.769 489.949 430.832C489.886 430.895 489.836 430.969 489.802 431.051C489.768 431.133 489.751 431.221 489.751 431.31V434.716H479.615V431.31C479.615 431.221 479.597 431.133 479.564 431.051C479.53 430.969 479.48 430.895 479.417 430.832C479.354 430.769 479.28 430.72 479.198 430.686C479.116 430.652 479.028 430.634 478.939 430.634H462.722C462.633 430.634 462.546 430.652 462.464 430.686C462.382 430.72 462.307 430.769 462.244 430.832C462.182 430.895 462.132 430.969 462.098 431.051C462.064 431.133 462.046 431.221 462.046 431.31V434.716H451.911V431.31C451.911 431.221 451.893 431.133 451.859 431.051C451.825 430.969 451.776 430.895 451.713 430.832C451.65 430.769 451.576 430.72 451.494 430.686C451.412 430.652 451.324 430.634 451.235 430.634H324.201C324.112 430.634 324.024 430.652 323.942 430.686C323.86 430.72 323.786 430.769 323.723 430.832C323.66 430.895 323.611 430.969 323.577 431.051C323.543 431.133 323.525 431.221 323.525 431.31V434.716H313.39V431.31C313.39 431.221 313.372 431.133 313.338 431.051C313.304 430.969 313.254 430.895 313.192 430.832C313.129 430.769 313.054 430.72 312.972 430.686C312.89 430.652 312.803 430.634 312.714 430.634H296.497C296.408 430.634 296.32 430.652 296.238 430.686C296.156 430.72 296.082 430.769 296.019 430.832C295.956 430.895 295.906 430.969 295.872 431.051C295.839 431.133 295.821 431.221 295.821 431.31V434.716H285.685V431.31C285.685 431.221 285.668 431.133 285.634 431.051C285.6 430.969 285.55 430.895 285.487 430.832C285.425 430.769 285.35 430.72 285.268 430.686C285.186 430.652 285.098 430.634 285.01 430.634H268.793C268.704 430.634 268.616 430.652 268.534 430.686C268.452 430.72 268.377 430.769 268.315 430.832C268.252 430.895 268.202 430.969 268.168 431.051C268.134 431.133 268.117 431.221 268.117 431.31V434.716H257.981V431.31C257.981 431.221 257.964 431.133 257.93 431.051C257.896 430.969 257.846 430.895 257.783 430.832C257.72 430.769 257.646 430.72 257.564 430.686C257.482 430.652 257.394 430.634 257.305 430.634H241.088C241 430.634 240.912 430.652 240.83 430.686C240.748 430.72 240.673 430.769 240.61 430.832C240.548 430.895 240.498 430.969 240.464 431.051C240.43 431.133 240.413 431.221 240.413 431.31V434.716H230.277V431.31C230.277 431.221 230.259 431.133 230.225 431.051C230.192 430.969 230.142 430.895 230.079 430.832C230.016 430.769 229.942 430.72 229.86 430.686C229.778 430.652 229.69 430.634 229.601 430.634H213.384C213.295 430.634 213.207 430.652 213.125 430.686C213.043 430.72 212.969 430.769 212.906 430.832C212.844 430.895 212.794 430.969 212.76 431.051C212.726 431.133 212.708 431.221 212.708 431.31V434.716H202.573V431.31C202.573 431.221 202.555 431.133 202.521 431.051C202.487 430.969 202.438 430.895 202.375 430.832C202.312 430.769 202.238 430.72 202.156 430.686C202.074 430.652 201.986 430.634 201.897 430.634H185.68C185.591 430.634 185.503 430.652 185.421 430.686C185.339 430.72 185.265 430.769 185.202 430.832C185.139 430.895 185.09 430.969 185.056 431.051C185.022 431.133 185.004 431.221 185.004 431.31V434.716H174.868V431.31C174.868 431.221 174.851 431.133 174.817 431.051C174.783 430.969 174.733 430.895 174.671 430.832C174.608 430.769 174.533 430.72 174.451 430.686C174.369 430.652 174.281 430.634 174.193 430.634H157.976C157.887 430.634 157.799 430.652 157.717 430.686C157.635 430.72 157.561 430.769 157.498 430.832C157.435 430.895 157.385 430.969 157.351 431.051C157.317 431.133 157.3 431.221 157.3 431.31V434.716H126.217C121.916 434.716 117.791 436.424 114.75 439.463C111.709 442.503 110 446.626 110 450.925V458.255C110 462.554 111.709 466.677 114.75 469.716C117.791 472.756 121.916 474.464 126.217 474.464H665.436C669.737 474.464 673.862 472.756 676.903 469.716C679.944 466.677 681.653 462.554 681.653 458.255V450.925C681.653 446.626 679.944 442.503 676.903 439.463C673.862 436.424 669.737 434.716 665.436 434.716Z" fill="#3F3D56"/>
<path id="Vector_15" d="M236.051 401.755C224.439 401.755 213.088 398.313 203.433 391.865C193.778 385.417 186.253 376.252 181.809 365.529C177.366 354.806 176.203 343.007 178.468 331.624C180.734 320.241 186.325 309.785 194.536 301.578C202.747 293.371 213.208 287.782 224.597 285.518C235.985 283.254 247.79 284.416 258.518 288.857C269.246 293.299 278.415 300.82 284.866 310.47C291.318 320.121 294.761 331.466 294.761 343.072C294.743 358.631 288.552 373.546 277.546 384.548C266.539 395.549 251.616 401.737 236.051 401.755ZM236.051 285.935C224.744 285.935 213.692 289.286 204.291 295.564C194.89 301.843 187.563 310.766 183.237 321.207C178.91 331.647 177.778 343.136 179.984 354.22C182.189 365.303 187.634 375.484 195.629 383.475C203.623 391.466 213.809 396.908 224.898 399.112C235.987 401.317 247.481 400.186 257.927 395.861C268.372 391.536 277.3 384.213 283.582 374.817C289.863 365.42 293.216 354.373 293.216 343.072C293.199 327.924 287.171 313.401 276.454 302.689C265.737 291.977 251.207 285.952 236.051 285.935Z" fill="#3F3D56"/>
</g>
<g id="Woman">
<path id="Vector_16" d="M338.633 586.326C337.706 582.5 337.051 578.613 336.674 574.694L335.357 560.539C334.803 556.662 334.233 553.247 333.661 550.232C329.465 528.736 325.134 527.958 325.134 527.958C324.947 528.101 324.767 528.258 324.58 528.421C324.071 528.884 323.597 529.384 323.162 529.917C316.264 538.679 311.584 561.407 309.125 576.484C307.767 584.813 307.091 590.806 307.091 590.806C307.091 590.806 307.706 593.358 308.544 597H340.024C339.905 593.406 339.439 589.831 338.633 586.326Z" fill="#F2F2F2"/>
<path id="Vector_17" d="M189.94 361.556C225.403 361.556 254.151 335.411 254.151 303.159C254.151 270.907 225.403 244.762 189.94 244.762C154.477 244.762 125.729 270.907 125.729 303.159C125.729 335.411 154.477 361.556 189.94 361.556Z" fill="#3F3D56"/>
<path id="Vector_18" d="M295.72 493.987C295.72 493.987 317.349 479.126 317.349 472.371C317.349 465.616 332.219 421.709 340.329 441.298C348.44 460.887 328.839 488.583 328.839 488.583C328.839 488.583 307.21 527.762 294.368 534.517C281.526 541.272 270.711 537.219 270.711 537.219V518.98L283.068 500.703C284.466 498.635 286.351 496.941 288.557 495.77C290.762 494.599 293.222 493.987 295.72 493.987Z" fill="#FFB9B9"/>
<path id="Vector_19" d="M234.242 390.525C234.242 390.525 266.656 400.768 270.035 405.497C273.415 410.225 274.767 402.119 284.229 433.192C293.692 464.265 296.058 494.324 296.058 494.324C296.058 494.324 272.739 502.093 275.442 532.49C278.146 562.887 271.387 595.987 271.387 595.987H262.949L244.351 538.57L266.656 451.43C266.656 451.43 234.947 397.845 234.242 390.525Z" fill="#575A89"/>
<path id="Vector_20" d="M223.398 362.265C245.795 362.265 263.952 344.119 263.952 321.735C263.952 299.351 245.795 281.205 223.398 281.205C201 281.205 182.843 299.351 182.843 321.735C182.843 344.119 201 362.265 223.398 362.265Z" fill="#FFB9B9"/>
<path id="Vector_21" d="M238.944 352.132C238.944 352.132 227.453 389.96 237.592 395.364C247.73 400.768 259.221 425.086 259.221 425.086L241.647 444.676H201.093L182.843 424.411L175.408 389.96L185.547 381.854C185.547 381.854 196.361 354.834 196.361 340.649C196.361 326.464 238.944 352.132 238.944 352.132Z" fill="#FFB9B9"/>
<path id="Vector_22" d="M242.323 394.013C242.323 394.013 234.212 391.987 238.943 400.093C243.675 408.199 248.406 423.06 231.509 423.735C214.611 424.411 197.713 415.629 192.306 397.391C186.899 379.152 184.871 380.503 182.843 381.179C180.816 381.854 159.187 404.146 159.187 404.146L166.622 446.027L169.325 595.987H268.007C268.007 595.987 272.063 552.755 265.304 542.623C258.545 532.49 271.387 506.821 271.387 506.821C271.387 506.821 282.877 489.258 274.091 455.483C265.304 421.709 245.703 394.013 242.323 394.013Z" fill="#00A6A6"/>
<path id="Vector_23" d="M187.575 381.179C187.575 381.179 177.436 376.45 168.649 384.556C159.862 392.662 140.261 399.417 140.261 403.47C140.261 407.523 157.159 523.033 145.668 543.298C134.178 563.563 122.012 595.987 122.012 595.987H178.391C178.391 595.987 187.575 562.212 197.037 543.974C206.5 525.735 205.824 474.397 203.12 458.861C200.417 443.325 187.575 381.179 187.575 381.179Z" fill="#575A89"/>
<path id="Vector_24" d="M128.095 560.186L131.387 595.987H167.917L164.594 551.404L128.095 560.186Z" fill="#FFB9B9"/>
<path id="Vector_25" d="M294.368 541.271L303.155 595.987H498.491L515.389 485.881L294.368 541.271Z" fill="#3F3D56"/>
<path id="Vector_26" d="M522.824 478.45L524.852 488.583L272.063 549.377V540.596L522.824 478.45Z" fill="#3F3D56"/>
<path id="Vector_27" d="M416.031 496.689L414.679 508.172L429.549 506.146L423.466 494.662L416.031 496.689Z" fill="#3F3D56"/>
<path id="Vector_28" d="M334.246 380.503C334.246 380.503 363.986 378.477 372.097 401.444C380.208 424.411 399.133 465.616 406.568 471.695C414.003 477.775 422.114 493.987 420.762 499.391" stroke="#3F3D56" stroke-width="5" stroke-miterlimit="10"/>
<path id="Vector_29" d="M338.64 380.166C338.64 383.337 335.266 385.907 329.853 385.907C324.44 385.907 321.742 383.337 321.742 380.166C321.742 376.994 324.44 374.424 329.853 374.424C335.266 374.424 338.64 376.994 338.64 380.166Z" fill="#00A6A6"/>
<path id="Vector_30" d="M288.623 485.543C288.623 485.543 293.692 464.265 284.229 433.192C274.767 402.119 273.415 410.225 270.035 405.497C266.656 400.768 234.242 390.525 234.242 390.525C234.473 392.93 238.053 400.331 242.755 409.185C241.908 405.993 240.626 402.934 238.943 400.093C234.212 391.987 242.323 394.013 242.323 394.013C245.703 394.013 265.304 421.709 274.091 455.483C282.877 489.258 271.387 506.821 271.387 506.821L288.623 485.543Z" fill="#575A89"/>
<path id="Vector_31" d="M234.55 390.298C234.55 390.298 238.552 405.468 241.958 407.678C245.365 409.887 265.567 430.864 265.567 430.864L262.938 413.94L252.124 397.728L249.247 395.642L234.55 390.298Z" fill="#575A89"/>
<path id="Vector_32" opacity="0.1" d="M144.655 436.907L145.597 402.119C145.597 402.119 123.364 411.576 121.336 452.106C119.308 492.636 124.715 568.967 132.15 569.642C139.585 570.318 174.732 562.212 174.732 562.212C174.732 562.212 180.14 464.265 178.112 451.431C176.084 438.596 144.655 436.907 144.655 436.907Z" fill="black"/>
<path id="Vector_33" d="M146.344 402.119H140.866C140.866 402.119 118.632 411.576 116.604 452.106C114.577 492.636 119.984 568.967 127.419 569.642C134.854 570.318 170.001 562.212 170.001 562.212C170.001 562.212 175.408 464.265 173.381 451.431C171.353 438.596 146.344 402.119 146.344 402.119Z" fill="#575A89"/>
<path id="Vector_34" d="M175.07 357.874C198.215 357.874 216.977 336.855 216.977 310.927C216.977 284.999 198.215 263.98 175.07 263.98C151.926 263.98 133.164 284.999 133.164 310.927C133.164 336.855 151.926 357.874 175.07 357.874Z" fill="#3F3D56"/>
<path id="Vector_35" d="M205.148 349.093C209.814 349.093 213.597 343.498 213.597 336.596C213.597 329.694 209.814 324.099 205.148 324.099C200.482 324.099 196.699 329.694 196.699 336.596C196.699 343.498 200.482 349.093 205.148 349.093Z" fill="#FFB9B9"/>
<path id="Vector_36" d="M133.164 298.43C152.202 298.43 167.635 283.007 167.635 263.98C167.635 244.954 152.202 229.53 133.164 229.53C114.126 229.53 98.693 244.954 98.693 263.98C98.693 283.007 114.126 298.43 133.164 298.43Z" fill="#3F3D56"/>
<path id="Vector_37" d="M137.62 291.579C132.612 294.125 127.057 295.41 121.439 295.32C115.821 295.231 110.31 293.77 105.386 291.065C100.462 288.361 96.2744 284.494 93.1875 279.802C90.1007 275.11 88.2084 269.735 87.6753 264.145C86.9392 268.97 87.2376 273.897 88.5508 278.598C89.864 283.299 92.1619 287.668 95.2923 291.415C98.4227 295.161 102.314 298.2 106.709 300.33C111.103 302.46 115.9 303.633 120.782 303.77C125.665 303.906 130.52 303.005 135.027 301.124C139.534 299.244 143.59 296.428 146.926 292.863C150.261 289.297 152.801 285.064 154.376 280.444C155.95 275.823 156.525 270.921 156.061 266.062C155.24 271.475 153.139 276.614 149.932 281.052C146.724 285.49 142.503 289.099 137.62 291.579Z" fill="#3F3D56"/>
<path id="Vector_38" d="M114.253 269.674C110.791 265.251 108.464 260.049 107.474 254.522C106.484 248.994 106.862 243.309 108.573 237.96C110.284 232.612 113.278 227.762 117.294 223.835C121.309 219.907 126.224 217.019 131.612 215.424C126.732 215.628 121.951 216.866 117.586 219.056C113.221 221.246 109.372 224.338 106.293 228.127C103.215 231.916 100.977 236.316 99.7282 241.035C98.4796 245.754 98.2488 250.684 99.051 255.499C99.8533 260.314 101.67 264.903 104.381 268.963C107.093 273.023 110.636 276.461 114.778 279.048C118.919 281.636 123.563 283.314 128.402 283.973C133.242 284.631 138.166 284.254 142.848 282.866C137.376 283.1 131.926 282.025 126.952 279.731C121.979 277.437 117.625 273.989 114.253 269.674Z" fill="#3F3D56"/>
<path id="Vector_39" d="M225.763 307.887C239.202 307.887 250.096 300.024 250.096 290.325C250.096 280.625 239.202 272.762 225.763 272.762C212.325 272.762 201.431 280.625 201.431 290.325C201.431 300.024 212.325 307.887 225.763 307.887Z" fill="#3F3D56"/>
</g>
<g id="webi">
<path id="REG" opacity="0.7" d="M181.95 839L160.95 800H157.8V839H128.4V733.25H174.75C183.25 733.25 190.45 734.75 196.35 737.75C202.25 740.65 206.7 744.7 209.7 749.9C212.7 755 214.2 760.75 214.2 767.15C214.2 774.35 212.2 780.7 208.2 786.2C204.3 791.6 198.55 795.45 190.95 797.75L214.8 839H181.95ZM157.8 779.9H172.35C176.35 779.9 179.35 778.95 181.35 777.05C183.35 775.15 184.35 772.4 184.35 768.8C184.35 765.4 183.3 762.75 181.2 760.85C179.2 758.85 176.25 757.85 172.35 757.85H157.8V779.9ZM256.97 756.8V774.05H290.72V796.4H256.97V815.45H295.22V839H227.57V733.25H295.22V756.8H256.97ZM377.248 768.05C375.548 765.25 373.198 763.1 370.198 761.6C367.298 760.1 363.848 759.35 359.848 759.35C352.448 759.35 346.598 761.75 342.298 766.55C338.098 771.35 335.998 777.8 335.998 785.9C335.998 795 338.248 801.95 342.748 806.75C347.348 811.45 353.998 813.8 362.698 813.8C372.998 813.8 380.348 809.15 384.748 799.85H355.198V778.7H410.098V807.2C407.798 812.8 404.398 818.05 399.898 822.95C395.498 827.85 389.898 831.9 383.098 835.1C376.298 838.2 368.548 839.75 359.848 839.75C349.248 839.75 339.848 837.5 331.648 833C323.548 828.4 317.248 822.05 312.748 813.95C308.348 805.75 306.148 796.4 306.148 785.9C306.148 775.5 308.348 766.25 312.748 758.15C317.248 749.95 323.548 743.6 331.648 739.1C339.748 734.5 349.098 732.2 359.698 732.2C372.998 732.2 383.998 735.4 392.698 741.8C401.398 748.2 406.798 756.95 408.898 768.05H377.248Z" fill="#093A3E"/>
<path id="WEBI" d="M214.9 666.5L197.6 737H173.5L163.8 693.8L153.9 737H129.8L112.7 666.5H133.9L142.1 714.7L153.2 666.5H174.7L185.5 714.3L193.7 666.5H214.9ZM242.817 682.2V693.7H265.317V708.6H242.817V721.3H268.317V737H223.217V666.5H268.317V682.2H242.817ZM323.002 700.8C327.136 701.733 330.402 703.8 332.802 707C335.269 710.133 336.502 713.733 336.502 717.8C336.502 723.8 334.436 728.5 330.302 731.9C326.169 735.3 320.369 737 312.902 737H278.002V666.5H311.802C319.002 666.5 324.636 668.1 328.702 671.3C332.836 674.5 334.902 679 334.902 684.8C334.902 688.933 333.802 692.4 331.602 695.2C329.469 697.933 326.602 699.8 323.002 700.8ZM297.602 694.5H307.502C312.436 694.5 314.902 692.467 314.902 688.4C314.902 684.2 312.436 682.1 307.502 682.1H297.602V694.5ZM309.002 721.2C313.936 721.2 316.402 719.133 316.402 715C316.402 712.867 315.736 711.233 314.402 710.1C313.136 708.967 311.302 708.4 308.902 708.4H297.602V721.2H309.002ZM364.692 666.5V737H345.092V666.5H364.692Z" fill="#093A3E"/>
</g>
</g>
</svg>
