<svg width="297" height="244" viewBox="0 0 297 244" fill="none" xmlns="http://www.w3.org/2000/svg">
<g id="webi">
<path id="REG" opacity="0.7" d="M61.95 215.5L40.95 176.5H37.8V215.5H8.4V109.75H54.75C63.25 109.75 70.45 111.25 76.35 114.25C82.25 117.15 86.7 121.2 89.7 126.4C92.7 131.5 94.2 137.25 94.2 143.65C94.2 150.85 92.2 157.2 88.2 162.7C84.3 168.1 78.55 171.95 70.95 174.25L94.8 215.5H61.95ZM37.8 156.4H52.35C56.35 156.4 59.35 155.45 61.35 153.55C63.35 151.65 64.35 148.9 64.35 145.3C64.35 141.9 63.3 139.25 61.2 137.35C59.2 135.35 56.25 134.35 52.35 134.35H37.8V156.4ZM136.97 133.3V150.55H170.72V172.9H136.97V191.95H175.22V215.5H107.57V109.75H175.22V133.3H136.97ZM257.248 144.55C255.548 141.75 253.198 139.6 250.198 138.1C247.298 136.6 243.848 135.85 239.848 135.85C232.448 135.85 226.598 138.25 222.298 143.05C218.098 147.85 215.998 154.3 215.998 162.4C215.998 171.5 218.248 178.45 222.748 183.25C227.348 187.95 233.998 190.3 242.698 190.3C252.998 190.3 260.348 185.65 264.748 176.35H235.198V155.2H290.098V183.7C287.798 189.3 284.398 194.55 279.898 199.45C275.498 204.35 269.898 208.4 263.098 211.6C256.298 214.7 248.548 216.25 239.848 216.25C229.248 216.25 219.848 214 211.648 209.5C203.548 204.9 197.248 198.55 192.748 190.45C188.348 182.25 186.148 172.9 186.148 162.4C186.148 152 188.348 142.75 192.748 134.65C197.248 126.45 203.548 120.1 211.648 115.6C219.748 111 229.098 108.7 239.698 108.7C252.998 108.7 263.998 111.9 272.698 118.3C281.398 124.7 286.798 133.45 288.898 144.55H257.248Z" fill="#093A3E"/>
<path id="WEBI" d="M104.9 39.5L87.6 110H63.5L53.8 66.8L43.9 110H19.8L2.7 39.5H23.9L32.1 87.7L43.2 39.5H64.7L75.5 87.3L83.7 39.5H104.9ZM132.817 55.2V66.7H155.317V81.6H132.817V94.3H158.317V110H113.217V39.5H158.317V55.2H132.817ZM213.002 73.8C217.136 74.7333 220.402 76.8 222.802 80C225.269 83.1333 226.502 86.7333 226.502 90.8C226.502 96.8 224.436 101.5 220.302 104.9C216.169 108.3 210.369 110 202.902 110H168.002V39.5H201.802C209.002 39.5 214.636 41.1 218.702 44.3C222.836 47.5 224.902 52 224.902 57.8C224.902 61.9333 223.802 65.4 221.602 68.2C219.469 70.9333 216.602 72.8 213.002 73.8ZM187.602 67.5H197.502C202.436 67.5 204.902 65.4667 204.902 61.4C204.902 57.2 202.436 55.1 197.502 55.1H187.602V67.5ZM199.002 94.2C203.936 94.2 206.402 92.1333 206.402 88C206.402 85.8667 205.736 84.2333 204.402 83.1C203.136 81.9667 201.302 81.4 198.902 81.4H187.602V94.2H199.002ZM254.692 39.5V110H235.092V39.5H254.692Z" fill="#093A3E"/>
</g>
</svg>
